<svg width="20" height="20" viewBox="0 0 20 20" fill="none" xmlns="http://www.w3.org/2000/svg">
<path d="M13.3333 6.87244V12.918C13.3333 15.9096 10.9082 18.3346 7.91667 18.3346C4.92512 18.3346 2.5 15.9096 2.5 12.918C2.5 9.92638 4.92512 7.5013 7.91667 7.5013C8.34692 7.5013 8.76542 7.55146 9.16667 7.64624V10.282C8.78783 10.102 8.364 10.0013 7.91667 10.0013C6.30583 10.0013 5 11.3071 5 12.918C5 14.5288 6.30583 15.8346 7.91667 15.8346C9.5275 15.8346 10.8333 14.5288 10.8333 12.918V1.66797H13.3333C13.3333 3.96915 15.1988 5.83464 17.5 5.83464V8.33464C15.9234 8.33464 14.4747 7.78737 13.3333 6.87244Z" fill="#878493"/>
</svg>
