<svg width="20" height="20" viewBox="0 0 20 20" fill="none" xmlns="http://www.w3.org/2000/svg">
<path d="M16.3396 5.82771C16.2761 5.57949 16.0965 5.39221 15.8908 5.33443C15.5254 5.23255 13.7513 4.9987 10.0013 4.9987C6.2513 4.9987 4.47759 5.23264 4.11069 5.33472C3.90695 5.39139 3.7274 5.57864 3.66307 5.82771C3.5724 6.18139 3.33464 7.66199 3.33464 9.9987C3.33464 12.3354 3.5724 13.816 3.66332 14.1707C3.72654 14.4179 3.90612 14.6052 4.11091 14.6627C4.47759 14.7648 6.2513 14.9987 10.0013 14.9987C13.7513 14.9987 15.5254 14.7649 15.8919 14.6627C16.0957 14.606 16.2752 14.4188 16.3396 14.1697C16.4302 13.816 16.668 12.332 16.668 9.9987C16.668 7.66536 16.4302 6.18139 16.3396 5.82771ZM17.954 5.41385C18.3347 6.8987 18.3347 9.9987 18.3347 9.9987C18.3347 9.9987 18.3347 13.0987 17.954 14.5835C17.7419 15.4048 17.123 16.0502 16.3385 16.2684C14.9147 16.6654 10.0013 16.6654 10.0013 16.6654C10.0013 16.6654 5.09079 16.6654 3.66413 16.2684C2.8767 16.0472 2.25781 15.4017 2.0486 14.5835C1.66797 13.0987 1.66797 9.9987 1.66797 9.9987C1.66797 9.9987 1.66797 6.8987 2.0486 5.41385C2.26071 4.59264 2.87961 3.94718 3.66413 3.729C5.09079 3.33203 10.0013 3.33203 10.0013 3.33203C10.0013 3.33203 14.9147 3.33203 16.3385 3.729C17.1259 3.95021 17.7448 4.59566 17.954 5.41385ZM8.33465 12.9154V7.08203L13.3347 9.9987L8.33465 12.9154Z" fill="#878493"/>
</svg>
