<svg width="20" height="20" viewBox="0 0 20 20" fill="none" xmlns="http://www.w3.org/2000/svg">
<path d="M3.33724 2.5H16.6706C17.1308 2.5 17.5039 2.8731 17.5039 3.33333V16.6667C17.5039 17.1269 17.1308 17.5 16.6706 17.5H3.33724C2.877 17.5 2.50391 17.1269 2.50391 16.6667V3.33333C2.50391 2.8731 2.877 2.5 3.33724 2.5ZM4.17057 4.16667V15.8333H15.8373V4.16667H4.17057ZM6.25391 7.5C5.56355 7.5 5.00391 6.94036 5.00391 6.25C5.00391 5.55964 5.56355 5 6.25391 5C6.94426 5 7.50391 5.55964 7.50391 6.25C7.50391 6.94036 6.94426 7.5 6.25391 7.5ZM5.42057 8.33333H7.08724V14.5833H5.42057V8.33333ZM10.0039 8.69125C10.4909 8.22112 11.0585 7.91667 11.6706 7.91667C13.3964 7.91667 14.5873 9.31575 14.5873 11.0417V14.5833H12.9206V11.0417C12.9206 10.2362 12.2677 9.58333 11.4623 9.58333C10.6568 9.58333 10.0039 10.2362 10.0039 11.0417V14.5833H8.33726V8.33333H10.0039V8.69125Z" fill="#878493"/>
</svg>
