<svg width="20" height="20" viewBox="0 0 20 20" fill="none" xmlns="http://www.w3.org/2000/svg">
<path d="M10.0013 7.5013C8.62015 7.5013 7.5013 8.62055 7.5013 10.0013C7.5013 11.3824 8.62057 12.5013 10.0013 12.5013C11.3824 12.5013 12.5013 11.3821 12.5013 10.0013C12.5013 8.62022 11.3821 7.5013 10.0013 7.5013ZM10.0013 5.83464C12.3017 5.83464 14.168 7.69888 14.168 10.0013C14.168 12.3017 12.3037 14.168 10.0013 14.168C7.70091 14.168 5.83464 12.3037 5.83464 10.0013C5.83464 7.70091 7.69889 5.83464 10.0013 5.83464ZM15.418 5.62559C15.418 6.20069 14.9507 6.66728 14.3763 6.66728C13.8012 6.66728 13.3347 6.19997 13.3347 5.62559C13.3347 5.05122 13.8019 4.58464 14.3763 4.58464C14.9499 4.58391 15.418 5.05122 15.418 5.62559ZM10.0013 3.33464C7.93924 3.33464 7.60314 3.34009 6.64404 3.3828C5.99061 3.41348 5.55259 3.50136 5.14562 3.65936C4.78395 3.79963 4.52306 3.96712 4.24509 4.24509C3.96604 4.52414 3.79885 4.78433 3.65915 5.14616C3.50079 5.55407 3.41293 5.99139 3.3828 6.64393C3.33968 7.56397 3.33464 7.88551 3.33464 10.0013C3.33464 12.0634 3.34009 12.3995 3.38279 13.3585C3.41349 14.0116 3.50149 14.4503 3.6591 14.8563C3.79974 15.2185 3.96757 15.48 4.2442 15.7566C4.52434 16.0364 4.78531 16.2041 5.14371 16.3425C5.55564 16.5017 5.99339 16.5897 6.64392 16.6198C7.56397 16.6629 7.88551 16.668 10.0013 16.668C12.0634 16.668 12.3995 16.6625 13.3585 16.6198C14.0102 16.5892 14.4492 16.501 14.8563 16.3435C15.2175 16.2032 15.4798 16.0348 15.7567 15.7584C16.0368 15.4778 16.2042 15.2175 16.3427 14.8582C16.5016 14.4478 16.5897 14.0095 16.6198 13.3587C16.6629 12.4386 16.668 12.1171 16.668 10.0013C16.668 7.93924 16.6625 7.60314 16.6198 6.64411C16.5892 5.99219 16.5009 5.55254 16.3432 5.14562C16.2033 4.78495 16.0352 4.52326 15.7575 4.24509C15.478 3.96559 15.2185 3.79874 14.8564 3.65915C14.4488 3.50092 14.0108 3.41294 13.3587 3.38281C12.4387 3.33968 12.1171 3.33464 10.0013 3.33464ZM10.0013 1.66797C12.2652 1.66797 12.5478 1.6763 13.4367 1.71797C14.3235 1.75894 14.9284 1.89922 15.4597 2.10547C16.0089 2.31728 16.4728 2.60339 16.936 3.06658C17.3985 3.52978 17.6847 3.99505 17.8972 4.54297C18.1027 5.07353 18.243 5.67908 18.2847 6.56589C18.3242 7.45478 18.3347 7.73741 18.3347 10.0013C18.3347 12.2652 18.3263 12.5478 18.2847 13.4367C18.2437 14.3236 18.1027 14.9284 17.8972 15.4596C17.6853 16.009 17.3985 16.4728 16.936 16.9361C16.4728 17.3986 16.0068 17.6846 15.4597 17.8971C14.9284 18.1027 14.3235 18.243 13.4367 18.2846C12.5478 18.3242 12.2652 18.3346 10.0013 18.3346C7.73741 18.3346 7.45477 18.3263 6.56589 18.2846C5.67908 18.2436 5.07491 18.1027 4.54297 17.8971C3.99435 17.6853 3.52977 17.3986 3.06658 16.9361C2.60339 16.4728 2.31797 16.0069 2.10547 15.4596C1.89922 14.9284 1.75964 14.3236 1.71797 13.4367C1.67839 12.5478 1.66797 12.2652 1.66797 10.0013C1.66797 7.73741 1.6763 7.45478 1.71797 6.56589C1.75894 5.67839 1.89922 5.07422 2.10547 4.54297C2.31727 3.99436 2.60339 3.52978 3.06658 3.06658C3.52977 2.60339 3.99505 2.31797 4.54297 2.10547C5.07422 1.89922 5.67839 1.75964 6.56589 1.71797C7.45477 1.67839 7.73741 1.66797 10.0013 1.66797Z" fill="#878493"/>
</svg>
