<svg width="20" height="20" viewBox="0 0 20 20" fill="none" xmlns="http://www.w3.org/2000/svg">
<g clip-path="url(#clip0_62_23758)">
<path d="M16.6573 9.64335C16.589 8.33162 16.1328 7.06969 15.3465 6.01752C15.1069 6.27555 14.8508 6.51772 14.5798 6.74252C13.7473 7.43406 12.8169 7.99851 11.819 8.41752C11.9582 8.70919 12.0857 8.99169 12.1982 9.25835V9.26085C12.2299 9.33536 12.2605 9.41037 12.2898 9.48585C13.5515 9.34419 14.8815 9.39585 16.1707 9.57002C16.3423 9.59335 16.504 9.61835 16.6573 9.64335ZM8.8365 3.43502C9.64862 4.57933 10.3975 5.76722 11.0798 6.99335C12.099 6.59169 12.9415 6.08502 13.6198 5.52085C13.8553 5.3268 14.0769 5.11657 14.2832 4.89169C13.084 3.88312 11.5668 3.33113 9.99984 3.33335C9.60987 3.33309 9.22061 3.36683 8.8365 3.43419V3.43502ZM3.544 8.33085C4.11169 8.31653 4.67871 8.28234 5.244 8.22835C6.61037 8.10614 7.96507 7.87711 9.29567 7.54335C8.60026 6.3352 7.84946 5.15978 7.04567 4.02085C6.1871 4.44618 5.43005 5.05119 4.82587 5.79484C4.2217 6.53849 3.78452 7.40338 3.544 8.33085ZM4.819 14.1959C5.14234 13.7234 5.56734 13.1917 6.1315 12.6134C7.34317 11.3717 8.77317 10.405 10.4282 9.87169L10.4798 9.85669C10.3423 9.55335 10.2132 9.28252 10.0832 9.02752C8.55317 9.47335 6.9415 9.75169 5.33567 9.89585C4.55234 9.96669 3.84984 9.99752 3.33317 10.0025C3.3317 11.5297 3.85675 13.0107 4.81984 14.1959H4.819ZM12.504 16.1792C12.1826 14.5586 11.7278 12.9673 11.144 11.4217C9.47567 12.0275 8.1465 12.9134 7.119 13.97C6.70434 14.3887 6.33635 14.8511 6.0215 15.3492C7.17051 16.2065 8.56623 16.6687 9.99984 16.6667C10.8581 16.6679 11.7085 16.5029 12.504 16.1809V16.1792ZM14.0648 15.2834C15.3659 14.2832 16.2522 12.8381 16.554 11.225C16.2707 11.1542 15.9115 11.0834 15.5165 11.0284C14.6383 10.9019 13.7472 10.8926 12.8665 11.0009C13.3624 12.3999 13.7628 13.8309 14.0648 15.2842V15.2834ZM9.99984 18.3334C5.39734 18.3334 1.6665 14.6025 1.6665 10C1.6665 5.39752 5.39734 1.66669 9.99984 1.66669C14.6023 1.66669 18.3332 5.39752 18.3332 10C18.3332 14.6025 14.6023 18.3334 9.99984 18.3334Z" fill="#878493"/>
</g>
<defs>
<clipPath id="clip0_62_23758">
<rect width="20" height="20" fill="white"/>
</clipPath>
</defs>
</svg>
